# xmcd
#
# Track frame offsets:
# 150
# 25060
# 48077
# 77214
# 97505
# 120691
#
# Disc length: 1865 seconds
#
# Revision: 0
# Processed by: cddbd v1.4PL0 Copyright (c) Steve Scherf et al.
# Submitted via: Audion 3.0.2 (http://www.panic.com/audion/)
#
DISCID=37074706
DTITLE=k-rad - Marlin Hotel 03-22-03
DYEAR=1900
DGENRE=
TTITLE0=middam
TTITLE1=124fly
TTITLE2=brenzgenfem
TTITLE3=136gay
TTITLE4=131perry
TTITLE5=136yewha
EXTD=
EXTT0=
EXTT1=
EXTT2=
EXTT3=
EXTT4=
EXTT5=
PLAYORDER=
